<?xml version="1.0" standalone="no"?>
<!DOCTYPE svg PUBLIC "-//W3C//DTD SVG 20010904//EN"
 "http://www.w3.org/TR/2001/REC-SVG-20010904/DTD/svg10.dtd">
<svg version="1.0" xmlns="http://www.w3.org/2000/svg"
 width="512.000000pt" height="512.000000pt" viewBox="0 0 512.000000 512.000000"
 preserveAspectRatio="xMidYMid meet">

<g transform="translate(0.000000,512.000000) scale(0.100000,-0.100000)"
fill="#000000" stroke="none">
<path d="M0 2560 l0 -2560 2560 0 2560 0 0 2560 0 2560 -2560 0 -2560 0 0
-2560z m3140 2010 c-85 -3 -122 -7 -90 -10 105 -7 -409 -17 -965 -19 -606 -1
-662 -5 -815 -56 -50 -17 -78 -31 -74 -37 4 -7 2 -8 -5 -4 -18 12 -132 -50
-218 -119 -179 -142 -298 -332 -349 -560 -15 -68 -19 -149 -24 -535 -3 -250
-8 -403 -10 -340 -4 111 -5 109 -10 -70 -4 -102 -6 67 -5 375 1 617 -2 587 67
760 66 165 218 350 370 451 119 79 300 148 443 167 17 2 435 4 930 3 495 0
835 -3 755 -6z m288 3 c-21 -2 -55 -2 -75 0 -21 2 -4 4 37 4 41 0 58 -2 38 -4z
m-2108 -98 c-7 -9 -19 -14 -27 -11 -7 3 -25 1 -39 -5 -15 -5 -29 -8 -31 -5 -5
4 75 34 96 35 11 1 11 -2 1 -14z m1154 -297 c7 -83 46 -926 46 -977 0 -27 -3
-28 -87 -45 -460 -90 -969 -279 -1252 -466 -236 -155 -361 -342 -361 -540 0
-41 12 -92 44 -185 5 -14 3 -13 -7 4 -13 22 -15 22 -24 7 -8 -15 -13 -9 -32
34 -105 243 24 533 324 731 216 143 615 288 1018 369 l57 11 0 86 0 86 -167
-6 c-91 -4 -205 -7 -253 -7 l-86 0 -99 -145 -100 -145 -162 0 c-90 0 -163 4
-163 9 0 4 8 19 18 32 10 13 117 168 237 344 328 480 553 803 578 826 53 51
89 59 284 59 l181 0 6 -82z m756 75 c0 -3 -32 -114 -72 -245 -39 -131 -68
-241 -65 -245 4 -3 95 -2 203 3 l197 9 68 232 c37 127 70 236 74 242 4 7 63
11 166 11 148 0 160 -1 155 -17 -14 -51 -252 -853 -279 -941 -23 -78 -33 -98
-39 -83 -12 32 -82 23 -142 -19 -59 -40 -133 -49 -145 -18 -4 12 -15 -10 -34
-73 -15 -50 -30 -89 -33 -86 -3 3 27 116 66 252 40 135 70 248 68 250 -1 2
-95 1 -208 -2 l-206 -6 -39 -135 c-22 -74 -46 -141 -53 -148 -7 -8 -29 -14
-47 -14 -19 0 -87 -7 -151 -15 -64 -9 -118 -14 -120 -12 -4 3 65 248 227 802
38 132 72 246 74 253 3 9 46 12 170 12 91 0 165 -3 165 -7z m407 -1085 c-3 -8
-6 -5 -6 6 -1 11 2 17 5 13 3 -3 4 -12 1 -19z m-594 -25 c-7 -2 -19 -2 -25 0
-7 3 -2 5 12 5 14 0 19 -2 13 -5z m-169 -38 c-115 -29 -292 -90 -327 -112 -20
-12 50 -23 213 -33 222 -13 701 -85 870 -131 41 -11 96 -32 122 -46 68 -37
165 -144 131 -143 -5 0 -28 5 -53 11 -35 8 -488 77 -701 106 -20 3 -39 0 -43
-5 -3 -6 15 -13 46 -17 29 -3 76 -10 103 -15 28 -5 104 -17 170 -25 66 -9 194
-27 285 -40 91 -13 190 -27 222 -31 56 -6 118 -35 118 -54 0 -13 8 -14 -176
15 -231 36 -621 85 -675 85 l-47 0 15 -30 c8 -17 12 -36 10 -43 -3 -6 -13 7
-23 31 -14 32 -24 42 -39 40 -16 -3 -19 -9 -17 -38 1 -19 10 -42 18 -51 10
-11 27 -83 45 -191 17 -95 36 -183 45 -195 44 -68 146 -87 639 -118 132 -9
252 -13 267 -10 15 4 30 15 33 26 4 10 -8 75 -26 144 -17 70 -29 128 -27 130
2 3 19 -53 38 -123 59 -222 77 -286 89 -316 7 -18 11 -72 9 -144 -3 -112 -4
-115 -25 -117 -25 -2 -29 5 -12 22 6 6 13 55 16 110 5 81 3 101 -10 111 -13
11 -16 3 -22 -71 -4 -47 -15 -100 -26 -123 -18 -38 -18 -39 -19 -10 0 37 -5
31 -14 -14 -4 -25 -3 -31 4 -20 5 8 10 11 10 7 0 -4 9 -3 21 3 18 10 20 9 17
-7 -2 -12 -14 -19 -37 -21 l-33 -3 8 78 c5 43 8 96 9 118 l0 40 -135 7 c-74 4
-229 12 -344 18 -143 7 -212 7 -221 0 -10 -8 -7 -36 12 -131 14 -66 22 -123
20 -126 -3 -3 -27 0 -54 6 -26 6 -95 13 -153 16 -57 3 -111 11 -119 18 -8 7
-12 7 -9 2 4 -6 3 -17 -1 -24 -6 -10 -27 -11 -85 -6 -75 7 -78 9 -100 44 -43
66 -68 82 -147 92 -58 7 -78 6 -102 -6 -39 -19 -37 -20 -39 18 l-1 32 -4 -33
c-4 -32 -6 -33 -46 -30 l-42 3 3 130 c6 272 24 578 38 665 11 66 41 89 139
106 11 2 65 15 120 29 55 14 114 25 132 25 17 0 35 4 38 10 11 17 -100 4 -399
-48 l-28 -5 7 44 c14 84 36 154 56 182 13 18 15 27 7 27 -7 0 -31 3 -52 7 -28
4 -37 3 -32 -5 4 -7 2 -12 -4 -12 -6 0 -8 -4 -5 -10 3 -5 -3 -10 -14 -10 -11
0 -27 -10 -35 -21 -11 -17 -21 -20 -41 -15 -17 4 -24 3 -20 -4 3 -5 18 -10 32
-10 l26 0 -5 -101 c-3 -56 -10 -104 -16 -107 -5 -4 -12 -18 -15 -32 -3 -17 -5
-11 -7 20 -5 67 -17 -330 -19 -612 -1 -241 -2 -248 -21 -248 -15 0 -20 7 -20
28 l0 28 -112 -4 c-140 -5 -136 8 4 17 88 5 103 8 104 24 1 12 1 13 -3 2 -3
-11 -19 -15 -55 -15 -28 0 -49 2 -46 6 5 4 -13 52 -69 182 -3 6 -11 12 -18 12
-8 0 -15 8 -17 18 -2 9 -19 -37 -37 -103 -19 -66 -36 -124 -39 -128 -2 -5 -19
6 -37 23 -22 21 -38 29 -47 24 -7 -4 -110 -86 -229 -181 -119 -95 -219 -173
-223 -173 -3 0 -41 22 -84 49 l-78 49 -80 -60 c-152 -114 -284 -208 -284 -201
0 4 -21 -13 -46 -37 -26 -25 -44 -38 -42 -30 6 19 417 408 439 415 9 3 51 -16
95 -43 l79 -49 197 171 197 171 -20 21 -20 22 -24 -22 c-33 -30 -53 -46 -59
-46 -3 0 -7 44 -9 98 l-3 97 -3 -110 c-1 -72 -5 -103 -11 -90 -5 11 -9 15 -9
9 -1 -13 -43 -24 -118 -31 -50 -4 -53 -3 -54 19 -1 22 -1 21 -11 -4 -5 -16
-14 -28 -19 -28 -5 0 -9 130 -9 313 0 286 2 315 18 329 27 24 777 403 872 441
134 54 244 88 364 113 164 34 180 28 30 -11z m-294 -4 c-26 -15 -80 -23 -80
-12 0 9 28 16 75 19 16 1 17 0 5 -7z m-195 -59 c-17 -14 -194 -66 -202 -59
-11 11 2 18 84 42 79 24 135 32 118 17z m-335 -122 c0 -5 -6 -10 -12 -10 -7 0
-53 -18 -103 -40 -84 -38 -145 -51 -145 -31 0 4 46 27 103 49 100 41 157 52
157 32z m-380 -170 c0 -5 -4 -10 -8 -10 -5 0 -52 -27 -105 -60 -63 -40 -106
-60 -126 -60 -17 0 -31 4 -31 10 0 19 202 130 237 130 18 0 33 -4 33 -10z
m1698 -135 c10 -10 -4 -11 -62 -6 -33 3 -61 11 -63 17 -3 8 15 8 58 2 35 -4
65 -10 67 -13z m707 -95 c22 -43 18 -61 -5 -20 -11 19 -19 38 -20 43 0 15 10
6 25 -23z m-30 -3 c7 -6 -5 -8 -34 -4 -24 3 -49 11 -55 17 -8 8 1 9 34 4 25
-4 50 -11 55 -17z m-2705 -3 c0 -3 -12 -20 -27 -38 -34 -41 -73 -124 -73 -158
0 -32 -4 -35 -58 -44 -41 -6 -42 -6 -42 22 0 39 43 128 86 181 31 37 40 43 75
43 21 0 39 -3 39 -6z m2729 -214 c0 -9 -4 -8 -9 5 -5 11 -9 27 -9 35 0 9 4 8
9 -5 5 -11 9 -27 9 -35z m34 -140 c4 -22 3 -29 -2 -20 -5 8 -11 35 -15 60 -6
50 6 21 17 -40z m-2678 -148 c17 -12 22 -19 13 -16 -20 7 -70 -24 -61 -39 12
-20 -61 29 -113 76 -60 54 -101 114 -88 127 5 5 25 10 44 12 32 3 41 -4 105
-68 39 -39 84 -81 100 -92z m1446 -285 c16 -22 29 -45 29 -51 0 -6 -11 6 -25
26 -13 19 -37 45 -52 56 -26 20 -26 21 -5 15 13 -3 37 -24 53 -46z m-751 13
c0 -6 -38 -10 -92 -11 -62 -1 -85 -4 -68 -9 21 -7 12 -15 -12 -11 -10 1 -9 9
-18 -159 l-6 -145 -2 173 -2 172 100 0 c60 0 100 -4 100 -10z m1215 -140 c50
-6 99 -17 109 -24 11 -7 31 -43 45 -81 42 -110 44 -110 282 -108 240 2 239 1
270 103 11 38 18 73 15 79 -3 5 13 12 36 16 24 4 48 12 55 17 19 15 55 -9 51
-35 -2 -15 -14 -24 -40 -32 -20 -5 -40 -13 -44 -17 -3 -4 8 -3 26 2 47 13 59
-4 59 -81 -1 -37 -5 -67 -12 -71 -18 -12 -99 -10 -92 2 3 6 -3 10 -13 10 -11
0 -25 7 -32 15 -11 14 -15 14 -32 -2 -18 -16 -44 -18 -243 -18 -208 0 -224 1
-246 20 -15 13 -19 14 -11 3 11 -14 8 -20 -21 -42 -25 -19 -42 -24 -68 -21
-18 2 -80 6 -136 9 l-103 5 0 -28 c0 -16 6 -33 13 -39 8 -7 66 -12 140 -13 70
0 127 -5 127 -10 0 -5 -57 -9 -127 -10 -81 0 -121 -4 -108 -9 14 -6 -5 -9 -57
-9 -63 -1 -79 2 -87 17 -7 11 -10 12 -11 3 0 -13 -15 -12 -105 6 -27 5 -28 7
-10 14 15 6 16 8 4 8 -9 1 -20 8 -23 17 -9 24 -7 134 3 134 4 0 6 -29 4 -64
l-5 -64 51 -11 c98 -21 91 -33 91 154 l0 164 27 14 c22 12 35 12 77 1 28 -7
92 -18 141 -24z m-842 3 c27 -3 45 -9 40 -13 -9 -8 -313 16 -322 26 -6 7 199
-3 282 -13z m-656 -78 c2 -6 -32 -10 -89 -10 l-93 0 -5 -70 c-5 -66 -5 -68
-12 -30 -11 59 -10 99 4 113 15 15 190 12 195 -3z m975 -2 c34 -40 41 -63 22
-84 -15 -17 -15 -19 0 -25 9 -3 13 -10 10 -16 -3 -5 -12 -7 -20 -4 -8 3 -14 0
-15 -7 0 -7 -9 7 -19 30 -18 40 -49 61 -70 48 -5 -3 -10 -2 -10 2 0 9 68 43
84 43 5 0 6 -7 3 -15 -7 -18 4 -26 21 -16 9 6 5 15 -14 34 -15 15 -22 27 -17
27 5 0 17 -8 25 -17z m191 -30 c-7 -2 -19 -2 -25 0 -7 3 -2 5 12 5 14 0 19 -2
13 -5z m-1446 -48 c2 -6 -32 -9 -92 -7 l-95 3 0 -43 c0 -24 -5 -50 -10 -58 -7
-11 -10 1 -10 41 0 30 5 60 12 67 15 15 190 12 195 -3z m880 -16 c43 -6 82
-15 87 -20 10 -9 -29 -4 -134 16 -83 16 -54 18 47 4z m1761 -103 c-1 -29 -5
-35 -31 -40 -16 -3 -48 -5 -71 -5 -36 1 -33 3 22 11 58 9 63 12 69 39 7 39 13
37 11 -5z m-1483 -6 c3 -11 11 -20 17 -20 6 0 8 -3 5 -7 -8 -7 -47 25 -47 39
0 16 19 8 25 -12z m-1440 -20 c4 -6 -26 -10 -84 -10 -49 0 -97 -3 -105 -6 -12
-5 -15 -2 -10 10 5 13 23 16 99 16 52 0 97 -4 100 -10z m2690 -20 c-3 -5 -18
-9 -33 -9 l-27 1 30 8 c17 4 31 8 33 9 2 0 0 -3 -3 -9z m-142 -17 c-40 -2
-107 -2 -150 0 -43 1 -10 3 72 3 83 0 118 -2 78 -3z m-1071 -63 c6 0 8 -3 5
-7 -10 -9 -57 37 -57 56 0 9 9 2 20 -16 11 -18 25 -33 32 -33z"/>
<path d="M2149 3946 c-9 -11 -77 -112 -153 -223 l-137 -203 143 0 c79 0 153 3
165 6 21 6 21 8 16 157 -3 84 -8 182 -12 218 -6 64 -7 66 -22 45z"/>
<path d="M3361 3254 c0 -11 3 -14 6 -6 3 7 2 16 -1 19 -3 4 -6 -2 -5 -13z"/>
<path d="M2183 2772 c-112 -53 -201 -97 -199 -99 2 -3 394 174 405 184 2 1 2
5 0 6 -2 2 -95 -39 -206 -91z"/>
<path d="M1870 2625 c-36 -19 -60 -34 -55 -34 6 0 39 15 75 34 36 19 61 34 55
34 -5 0 -39 -15 -75 -34z"/>
<path d="M2968 2583 c6 -2 18 -2 25 0 6 3 1 5 -13 5 -14 0 -19 -2 -12 -5z"/>
<path d="M1690 2540 c-41 -21 -70 -39 -65 -39 6 0 44 18 85 39 41 21 71 39 65
39 -5 0 -44 -18 -85 -39z"/>
<path d="M2928 2573 c7 -3 16 -2 19 1 4 3 -2 6 -13 5 -11 0 -14 -3 -6 -6z"/>
<path d="M2888 2563 c7 -3 16 -2 19 1 4 3 -2 6 -13 5 -11 0 -14 -3 -6 -6z"/>
<path d="M2943 2551 c-10 -11 -41 -25 -68 -31 -91 -22 -91 -22 -99 -160 -9
-154 -7 -158 98 -184 46 -12 76 -24 76 -32 0 -7 10 -18 23 -25 12 -6 30 -21
39 -32 16 -21 17 -21 37 -3 28 26 33 76 20 206 -6 63 -14 151 -17 195 l-7 80
-42 3 c-31 2 -46 -2 -60 -17z m-38 -51 c-3 -5 -13 -10 -21 -10 -8 0 -14 5 -14
10 0 6 9 10 21 10 11 0 17 -4 14 -10z"/>
<path d="M2848 2553 c7 -3 16 -2 19 1 4 3 -2 6 -13 5 -11 0 -14 -3 -6 -6z"/>
<path d="M2808 2543 c7 -3 16 -2 19 1 4 3 -2 6 -13 5 -11 0 -14 -3 -6 -6z"/>
<path d="M2650 2526 c0 -9 -10 -21 -22 -26 -21 -8 -20 -9 7 -6 23 2 29 7 27
22 -5 25 -12 32 -12 10z"/>
<path d="M2745 2530 c-13 -5 -14 -9 -5 -9 8 0 24 4 35 9 13 5 14 9 5 9 -8 0
-24 -4 -35 -9z"/>
<path d="M2578 2483 c7 -3 16 -2 19 1 4 3 -2 6 -13 5 -11 0 -14 -3 -6 -6z"/>
<path d="M2642 2445 c0 -16 2 -22 5 -12 2 9 2 23 0 30 -3 6 -5 -1 -5 -18z"/>
<path d="M2632 2325 c0 -16 2 -22 5 -12 2 9 2 23 0 30 -3 6 -5 -1 -5 -18z"/>
<path d="M2093 2160 c0 -30 2 -43 4 -27 2 15 2 39 0 55 -2 15 -4 2 -4 -28z"/>
<path d="M2623 2115 c0 -33 2 -45 4 -27 2 18 2 45 0 60 -2 15 -4 0 -4 -33z"/>
<path d="M2621 2024 c0 -11 3 -14 6 -6 3 7 2 16 -1 19 -3 4 -6 -2 -5 -13z"/>
<path d="M2623 1945 c0 -22 2 -30 4 -17 2 12 2 30 0 40 -3 9 -5 -1 -4 -23z"/>
<path d="M2737 1963 c-9 -9 -9 -55 1 -69 9 -14 72 -6 78 11 3 6 0 24 -5 38 -8
21 -17 27 -39 27 -16 0 -32 -3 -35 -7z"/>
<path d="M3271 1917 c-2 -15 30 -211 35 -216 9 -9 -6 108 -21 171 -7 29 -13
50 -14 45z"/>
<path d="M2621 1874 c0 -11 3 -14 6 -6 3 7 2 16 -1 19 -3 4 -6 -2 -5 -13z"/>
<path d="M4112 1790 c0 -14 2 -19 5 -12 2 6 2 18 0 25 -3 6 -5 1 -5 -13z"/>
<path d="M1069 1423 l-34 -38 38 34 c34 33 42 41 34 41 -2 0 -19 -17 -38 -37z"/>
<path d="M3175 1498 c4 -29 11 -60 17 -68 7 -12 8 -11 4 5 -3 11 -6 38 -8 60
l-3 40 50 -2 50 -2 -40 9 c-77 17 -78 16 -70 -42z"/>
<path d="M3338 1518 c57 -10 77 -30 88 -85 6 -31 5 -32 -32 -36 -37 -3 -37 -4
9 -5 26 -1 47 2 47 7 0 5 -9 34 -21 64 -19 50 -24 55 -57 61 -21 3 -48 5 -62
5 -14 -1 -1 -6 28 -11z"/>
<path d="M4078 1403 c6 -2 18 -2 25 0 6 3 1 5 -13 5 -14 0 -19 -2 -12 -5z"/>
<path d="M2998 1263 c6 -2 18 -2 25 0 6 3 1 5 -13 5 -14 0 -19 -2 -12 -5z"/>
</g>
</svg>
